<svg xmlns="http://www.w3.org/2000/svg" version="1.1" xmlns:xlink="http://www.w3.org/1999/xlink" xmlns:svgjs="http://svgjs.dev/svgjs" width="1500" height="1500" viewBox="0 0 1500 1500"><rect width="1500" height="1500" fill="#000000"></rect><g transform="matrix(0.6666666666666666,0,0,0.6666666666666666,249.39393939393943,672.7854315631333)"><svg viewBox="0 0 396 61" data-background-color="#ffffff" preserveAspectRatio="xMidYMid meet" height="231" width="1500" xmlns="http://www.w3.org/2000/svg" xmlns:xlink="http://www.w3.org/1999/xlink"><g id="tight-bounds" transform="matrix(1,0,0,1,0.2400000000000091,0.08499139382379894)"><svg viewBox="0 0 395.52 60.830017212352416" height="60.830017212352416" width="395.52"><g><svg viewBox="0 0 395.52 60.830017212352416" height="60.830017212352416" width="395.52"><g><svg viewBox="0 0 395.52 60.830017212352416" height="60.830017212352416" width="395.52"><g><svg viewBox="0 0 461.28723658555066 70.94485877158559" height="60.830017212352416" width="395.52"><g transform="matrix(1,0,0,1,65.76723658555075,0)"><svg viewBox="0 0 395.5199999999999 70.94485877158559" height="70.94485877158559" width="395.5199999999999"><g id="textblocktransform"><svg viewBox="0 0 395.5199999999999 70.94485877158559" height="70.94485877158559" width="395.5199999999999" id="textblock"><g><svg viewBox="0 0 395.5199999999999 43.164054794520545" height="43.164054794520545" width="395.5199999999999"><g transform="matrix(1,0,0,1,0,0)"><svg width="395.5199999999999" viewBox="0.75 -35.2 328.48 35.85" height="43.164054794520545" data-palette-color="#c10000"><path d="M15.1-5.5L23.35-34.5 29.25-34.5 18.3 0 11.7 0 0.75-34.5 6.95-34.5 15.1-5.5ZM55.4-34.5L55.4-30.1 47.9-30.1 47.9-4.45 55.4-4.45 55.4 0 34.6 0 34.6-4.45 42.1-4.45 42.1-30.1 34.6-30.1 34.6-34.5 55.4-34.5ZM71.45-30.1L71.45-19.7 83.95-19.7 83.95-15.35 71.45-15.35 71.45-4.4 86.7-4.4 86.7 0 65.65 0 65.65-34.5 86.4-34.5 85.75-30.1 71.45-30.1ZM107.84-29.8L107.84 0 102.04 0 102.04-29.8 91.64-29.8 91.64-34.5 118.39-34.5 117.79-29.8 107.84-29.8ZM125.94-13.35L125.94-17.95 144.04-17.95 144.04-13.35 125.94-13.35ZM167.89-35.2Q171.29-35.2 173.69-34.35 176.09-33.5 178.29-31.7L178.29-31.7 175.29-28.1Q172.14-30.65 168.14-30.65L168.14-30.65Q163.94-30.65 161.29-27.43 158.64-24.2 158.64-17.3L158.64-17.3Q158.64-10.5 161.24-7.28 163.84-4.05 168.19-4.05L168.19-4.05Q170.69-4.05 172.46-4.83 174.24-5.6 175.99-7L175.99-7 178.79-3.45Q174.59 0.65 167.99 0.65L167.99 0.65Q163.54 0.65 160.04-1.43 156.54-3.5 154.56-7.55 152.59-11.6 152.59-17.3L152.59-17.3Q152.59-22.9 154.61-26.95 156.64-31 160.14-33.1 163.64-35.2 167.89-35.2L167.89-35.2ZM201.04-8.3L188.74-8.3 186.34 0 180.39 0 191.39-34.5 198.59-34.5 209.59 0 203.44 0 201.04-8.3ZM189.94-12.8L199.84-12.8 194.89-30 189.94-12.8ZM237.28-24.5Q237.28-20.9 235.13-18.5 232.98-16.1 229.43-15L229.43-15 239.23 0 232.48 0 223.78-14.2 220.03-14.2 220.03 0 214.23 0 214.23-34.5 223.83-34.5Q237.28-34.5 237.28-24.5L237.28-24.5ZM231.23-24.5Q231.23-27.5 229.51-28.85 227.78-30.2 224.18-30.2L224.18-30.2 220.03-30.2 220.03-18.45 224.33-18.45Q227.73-18.45 229.48-19.9 231.23-21.35 231.23-24.5L231.23-24.5ZM251.43-30.1L251.43-19.7 263.93-19.7 263.93-15.35 251.43-15.35 251.43-4.4 266.68-4.4 266.68 0 245.63 0 245.63-34.5 266.38-34.5 265.73-30.1 251.43-30.1ZM281.43-30.1L281.43-19.7 293.93-19.7 293.93-15.35 281.43-15.35 281.43-4.4 296.68-4.4 296.68 0 275.63 0 275.63-34.5 296.38-34.5 295.73-30.1 281.43-30.1ZM327.28-24.5Q327.28-20.9 325.13-18.5 322.98-16.1 319.43-15L319.43-15 329.23 0 322.48 0 313.78-14.2 310.03-14.2 310.03 0 304.23 0 304.23-34.5 313.83-34.5Q327.28-34.5 327.28-24.5L327.28-24.5ZM321.23-24.5Q321.23-27.5 319.5-28.85 317.78-30.2 314.18-30.2L314.18-30.2 310.03-30.2 310.03-18.45 314.33-18.45Q317.73-18.45 319.48-19.9 321.23-21.35 321.23-24.5L321.23-24.5Z" opacity="1" transform="matrix(1,0,0,1,0,0)" fill="#ffffff" class="wordmark-text-0" data-fill-palette-color="primary" id="text-0"></path></svg></g></svg></g><g transform="matrix(1,0,0,1,0,53.35405219419178)"><svg viewBox="0 0 232.2097919999999 17.590806577393803" height="17.590806577393803" width="232.2097919999999"><g transform="matrix(1,0,0,1,0,0)"><svg width="232.2097919999999" viewBox="2.95 -36.35 625 47.35" height="17.590806577393803" data-palette-color="#c10000"><path d="M17.65 0L12.35 0 12.35-30.25 2.95-30.25 2.95-35 27.05-35 27.05-30.25 17.65-30.25 17.65 0ZM45 0.6L45 0.6Q41.45 0.6 38.65-1 35.85-2.6 34.25-5.53 32.65-8.45 32.65-12.4L32.65-12.4Q32.65-16.35 34.25-19.28 35.85-22.2 38.65-23.8 41.45-25.4 45.05-25.4L45.05-25.4Q48.65-25.4 51.42-23.8 54.2-22.2 55.77-19.28 57.35-16.35 57.35-12.4L57.35-12.4Q57.35-8.45 55.75-5.53 54.15-2.6 51.37-1 48.6 0.6 45 0.6ZM45-4.45L45-4.45Q46.9-4.45 48.5-5.3 50.1-6.15 51.07-7.93 52.05-9.7 52.05-12.4L52.05-12.4Q52.05-15.15 51.07-16.9 50.1-18.65 48.52-19.5 46.95-20.35 45.05-20.35L45.05-20.35Q43.15-20.35 41.55-19.5 39.95-18.65 38.97-16.9 38-15.15 38-12.4L38-12.4Q38-8.3 40.07-6.38 42.15-4.45 45-4.45ZM68.75 11L63.45 11 63.45-24.8 68.05-24.8 68.45-21 68.75-21Q69.75-22.85 71.77-24.13 73.8-25.4 76.59-25.4L76.59-25.4Q79.5-25.4 81.9-23.93 84.3-22.45 85.72-19.58 87.15-16.7 87.15-12.4L87.15-12.4Q87.15-8.15 85.67-5.25 84.2-2.35 81.7-0.88 79.2 0.6 76.09 0.6L76.09 0.6Q73.34 0.6 71.5-0.5 69.65-1.6 68.75-3L68.75-3 68.75 11ZM75.2-4.45L75.2-4.45Q78-4.45 79.87-6.45 81.75-8.45 81.75-12.45L81.75-12.45Q81.75-16.45 79.87-18.4 78-20.35 75.2-20.35L75.2-20.35Q72.34-20.35 70.47-18.38 68.59-16.4 68.59-12.4L68.59-12.4Q68.59-8.45 70.47-6.45 72.34-4.45 75.2-4.45ZM135.09 0.6L135.09 0.6Q130.69 0.6 127.62-1.65 124.54-3.9 122.92-7.98 121.29-12.05 121.29-17.45L121.29-17.45Q121.29-22.9 122.92-26.98 124.54-31.05 127.64-33.33 130.74-35.6 135.09-35.6L135.09-35.6Q140.74-35.6 144.09-32.52 147.44-29.45 147.99-24.2L147.99-24.2 142.14-24.2Q141.69-26.95 139.92-28.78 138.14-30.6 135.04-30.6L135.04-30.6Q131.09-30.6 128.89-27.1 126.69-23.6 126.69-17.45L126.69-17.45Q126.69-11.35 128.89-7.88 131.09-4.4 135.04-4.4L135.04-4.4Q138.24-4.4 139.94-6.08 141.64-7.75 142.14-10.5L142.14-10.5 147.99-10.5Q147.19-5.35 143.94-2.38 140.69 0.6 135.09 0.6ZM162.74 0.6L162.74 0.6Q159.79 0.6 157.79-0.43 155.79-1.45 154.79-3.18 153.79-4.9 153.79-6.95L153.79-6.95Q153.79-10.6 156.46-12.65 159.14-14.7 164.04-14.7L164.04-14.7 170.44-14.7 170.44-15.25Q170.44-20.85 165.24-20.85L165.24-20.85Q163.09-20.85 161.61-19.93 160.14-19 159.64-16.95L159.64-16.95 154.34-16.95Q154.74-20.85 157.71-23.13 160.69-25.4 165.24-25.4L165.24-25.4Q170.74-25.4 173.24-22.7 175.74-20 175.74-15.25L175.74-15.25 175.74 0 171.24 0 170.79-3.65 170.44-3.65Q169.34-1.9 167.69-0.65 166.04 0.6 162.74 0.6ZM163.74-3.85L163.74-3.85Q166.99-3.85 168.61-5.83 170.24-7.8 170.39-10.85L170.39-10.85 164.59-10.85Q161.74-10.85 160.56-9.93 159.39-9 159.39-7.35L159.39-7.35Q159.39-5.7 160.56-4.78 161.74-3.85 163.74-3.85ZM202.89 0L183.84 0 183.84-4.6 189.89-4.6 189.89-18.55Q189.89-20.2 188.29-20.2L188.29-20.2 184.34-20.2 184.34-24.8 190.29-24.8Q192.34-24.8 193.64-23.63 194.94-22.45 194.94-20.35L194.94-20.35 194.94-19.75 195.19-19.75Q195.74-22.55 197.56-23.98 199.39-25.4 202.89-25.4L202.89-25.4 206.74-25.4 206.74-19.8 201.34-19.8Q198.39-19.8 196.79-17.75 195.19-15.7 195.19-12.85L195.19-12.85 195.19-4.6 202.89-4.6 202.89 0ZM225.28 0.6L225.28 0.6Q221.68 0.6 218.93-1.03 216.18-2.65 214.63-5.55 213.08-8.45 213.08-12.3L213.08-12.3Q213.08-16.2 214.61-19.15 216.13-22.1 218.91-23.75 221.68-25.4 225.33-25.4L225.33-25.4Q228.93-25.4 231.53-23.78 234.13-22.15 235.56-19.45 236.98-16.75 236.98-13.5L236.98-13.5Q236.98-13 236.98-12.43 236.98-11.85 236.93-11.15L236.93-11.15 218.28-11.15Q218.53-7.7 220.53-5.93 222.53-4.15 225.23-4.15L225.23-4.15Q227.58-4.15 228.96-5.13 230.33-6.1 230.98-7.8L230.98-7.8 236.33-7.8Q235.43-4.25 232.58-1.83 229.73 0.6 225.28 0.6ZM225.28-20.8L225.28-20.8Q222.83-20.8 220.93-19.33 219.03-17.85 218.48-15.2L218.48-15.2 231.68-15.2Q231.48-17.7 229.73-19.25 227.98-20.8 225.28-20.8ZM255.28 0.6L255.28 0.6Q251.68 0.6 248.93-1.03 246.18-2.65 244.63-5.55 243.08-8.45 243.08-12.3L243.08-12.3Q243.08-16.2 244.61-19.15 246.13-22.1 248.91-23.75 251.68-25.4 255.33-25.4L255.33-25.4Q258.93-25.4 261.53-23.78 264.13-22.15 265.56-19.45 266.98-16.75 266.98-13.5L266.98-13.5Q266.98-13 266.98-12.43 266.98-11.85 266.93-11.15L266.93-11.15 248.28-11.15Q248.53-7.7 250.53-5.93 252.53-4.15 255.23-4.15L255.23-4.15Q257.58-4.15 258.96-5.13 260.33-6.1 260.98-7.8L260.98-7.8 266.33-7.8Q265.43-4.25 262.58-1.83 259.73 0.6 255.28 0.6ZM255.28-20.8L255.28-20.8Q252.83-20.8 250.93-19.33 249.03-17.85 248.48-15.2L248.48-15.2 261.68-15.2Q261.48-17.7 259.73-19.25 257.98-20.8 255.28-20.8ZM292.88 0L273.83 0 273.83-4.6 279.88-4.6 279.88-18.55Q279.88-20.2 278.28-20.2L278.28-20.2 274.33-20.2 274.33-24.8 280.28-24.8Q282.33-24.8 283.63-23.63 284.93-22.45 284.93-20.35L284.93-20.35 284.93-19.75 285.18-19.75Q285.73-22.55 287.55-23.98 289.38-25.4 292.88-25.4L292.88-25.4 296.73-25.4 296.73-19.8 291.33-19.8Q288.38-19.8 286.78-17.75 285.18-15.7 285.18-12.85L285.18-12.85 285.18-4.6 292.88-4.6 292.88 0ZM344.97 0.6L344.97 0.6Q340.72 0.6 337.62-1.6 334.52-3.8 332.87-7.85 331.22-11.9 331.22-17.5L331.22-17.5Q331.22-23.1 332.87-27.15 334.52-31.2 337.62-33.4 340.72-35.6 344.97-35.6L344.97-35.6Q349.27-35.6 352.35-33.4 355.42-31.2 357.07-27.15 358.72-23.1 358.72-17.5L358.72-17.5Q358.72-11.9 357.07-7.85 355.42-3.8 352.35-1.6 349.27 0.6 344.97 0.6ZM344.97-4.4L344.97-4.4Q348.72-4.4 351.02-7.78 353.32-11.15 353.32-17.5L353.32-17.5Q353.32-23.85 351.02-27.23 348.72-30.6 344.97-30.6L344.97-30.6Q341.17-30.6 338.9-27.23 336.62-23.85 336.62-17.5L336.62-17.5Q336.62-11.15 338.9-7.78 341.17-4.4 344.97-4.4ZM368.12 11L363.42 11 363.42 6.35 367.47 6.35Q369.22 6.35 370 5.63 370.77 4.9 370.77 3.2L370.77 3.2 370.77-20.3 364.47-20.3 364.47-24.8 370.77-24.8 370.77-28.25Q370.77-32.4 372.82-34.2 374.87-36 378.67-36L378.67-36 384.72-36 384.72-31.35 379.32-31.35Q377.57-31.35 376.82-30.65 376.07-29.95 376.07-28.2L376.07-28.2 376.07-24.8 384.72-24.8 384.72-20.3 376.07-20.3 376.07 3.25Q376.07 7.4 374.02 9.2 371.97 11 368.12 11L368.12 11ZM438.12 0L431.82 0 421.02-35 426.72-35 434.97-7 443.22-35 448.92-35 438.12 0ZM464.46-28.6L464.46-28.6Q462.71-28.6 461.54-29.73 460.36-30.85 460.36-32.5L460.36-32.5Q460.36-34.15 461.54-35.25 462.71-36.35 464.46-36.35L464.46-36.35Q466.26-36.35 467.44-35.25 468.61-34.15 468.61-32.5L468.61-32.5Q468.61-30.85 467.44-29.73 466.26-28.6 464.46-28.6ZM475.41 0L454.51 0 454.51-4.6 462.31-4.6 462.31-18.55Q462.31-20.2 460.71-20.2L460.71-20.2 455.21-20.2 455.21-24.8 461.66-24.8Q464.76-24.8 466.19-23.38 467.61-21.95 467.61-18.85L467.61-18.85 467.61-4.6 475.41-4.6 475.41 0ZM495.26 0.6L495.26 0.6Q491.66 0.6 488.91-1.03 486.16-2.65 484.61-5.55 483.06-8.45 483.06-12.3L483.06-12.3Q483.06-16.2 484.59-19.15 486.11-22.1 488.89-23.75 491.66-25.4 495.31-25.4L495.31-25.4Q498.91-25.4 501.51-23.78 504.11-22.15 505.54-19.45 506.96-16.75 506.96-13.5L506.96-13.5Q506.96-13 506.96-12.43 506.96-11.85 506.91-11.15L506.91-11.15 488.26-11.15Q488.51-7.7 490.51-5.93 492.51-4.15 495.21-4.15L495.21-4.15Q497.56-4.15 498.94-5.13 500.31-6.1 500.96-7.8L500.96-7.8 506.31-7.8Q505.41-4.25 502.56-1.83 499.71 0.6 495.26 0.6ZM495.26-20.8L495.26-20.8Q492.81-20.8 490.91-19.33 489.01-17.85 488.46-15.2L488.46-15.2 501.66-15.2Q501.46-17.7 499.71-19.25 497.96-20.8 495.26-20.8ZM534.71 0L527.66 0Q524.01 0 521.86-1.78 519.71-3.55 519.71-8.1L519.71-8.1 519.71-20.3 513.46-20.3 513.46-24.8 517.16-24.8Q519.71-24.8 520.16-27.3L520.16-27.3 520.91-31.3 525.01-31.3 525.01-24.8 534.81-24.8 534.81-20.3 525.01-20.3 525.01-8.2Q525.01-6.25 525.88-5.48 526.76-4.7 528.91-4.7L528.91-4.7 534.71-4.7 534.71 0ZM547.55 0L542.5 0 542.5-35 547.7-35 562.35-9.35 562.35-35 567.4-35 567.4 0 562.2 0 547.55-25.65 547.55 0ZM582.7 0.6L582.7 0.6Q579.75 0.6 577.75-0.43 575.75-1.45 574.75-3.18 573.75-4.9 573.75-6.95L573.75-6.95Q573.75-10.6 576.43-12.65 579.1-14.7 584-14.7L584-14.7 590.4-14.7 590.4-15.25Q590.4-20.85 585.2-20.85L585.2-20.85Q583.05-20.85 581.58-19.93 580.1-19 579.6-16.95L579.6-16.95 574.3-16.95Q574.7-20.85 577.68-23.13 580.65-25.4 585.2-25.4L585.2-25.4Q590.7-25.4 593.2-22.7 595.7-20 595.7-15.25L595.7-15.25 595.7 0 591.2 0 590.75-3.65 590.4-3.65Q589.3-1.9 587.65-0.65 586 0.6 582.7 0.6ZM583.7-3.85L583.7-3.85Q586.95-3.85 588.58-5.83 590.2-7.8 590.35-10.85L590.35-10.85 584.55-10.85Q581.7-10.85 580.53-9.93 579.35-9 579.35-7.35L579.35-7.35Q579.35-5.7 580.53-4.78 581.7-3.85 583.7-3.85ZM606.3 0L601.2 0 601.2-24.8 605.6-24.8 606.05-21.9 606.3-21.9Q606.95-23.45 608.3-24.43 609.65-25.4 611.5-25.4L611.5-25.4Q613.3-25.4 614.65-24.5 616-23.6 616.65-21.9L616.65-21.9 616.85-21.9Q617.5-23.4 618.9-24.4 620.3-25.4 622.35-25.4L622.35-25.4Q625.1-25.4 626.52-23.6 627.95-21.8 627.95-18.55L627.95-18.55 627.95 0 622.85 0 622.85-17.5Q622.85-19 622.22-19.88 621.6-20.75 620.25-20.75L620.25-20.75Q618.9-20.75 618.02-19.7 617.15-18.65 617.15-16.75L617.15-16.75 617.15 0 612 0 612-17.5Q612-19 611.4-19.88 610.8-20.75 609.45-20.75L609.45-20.75Q608.1-20.75 607.2-19.7 606.3-18.65 606.3-16.75L606.3-16.75 606.3 0Z" opacity="1" transform="matrix(1,0,0,1,0,0)" fill="#ffffff" class="slogan-text-1" data-fill-palette-color="secondary" id="text-1"></path></svg></g></svg></g></svg></g></svg></g><g transform="matrix(1,0,0,1,0,0.666172223865189)"><svg viewBox="0 0 55.57723918587952 69.61251432385521" height="69.61251432385521" width="55.57723918587952"><g><svg xmlns="http://www.w3.org/2000/svg" xmlns:xlink="http://www.w3.org/1999/xlink" version="1.1" x="0" y="0" viewBox="10.08100000000001 0 79.838 100" enable-background="new 0 0 100 100" xml:space="preserve" height="69.61251432385521" width="55.57723918587952" class="icon-icon-0" data-fill-palette-color="accent" id="icon-0"><g fill="#003c3b" data-fill-palette-color="accent"><path fill="#ffffff" d="M88.507 8.361c-3.756 1.172-7.751 1.803-11.895 1.803-2.709 0-5.355-0.27-7.91-0.783-6.279-1.264-12.023-3.999-16.861-7.832-0.267-0.21-0.532-0.425-0.791-0.644C50.695 0.61 50.344 0.307 50 0c-0.344 0.307-0.695 0.61-1.05 0.905-0.259 0.219-0.524 0.434-0.791 0.644-4.838 3.833-10.582 6.568-16.862 7.832-2.554 0.514-5.2 0.783-7.909 0.783-4.144 0-8.14-0.631-11.895-1.803-0.477-0.148-0.946-0.304-1.412-0.47v1.438 41.23C10.081 74.833 27.188 95.113 50 100c22.812-4.887 39.919-25.167 39.919-49.44V9.329 7.892C89.453 8.058 88.983 8.213 88.507 8.361zM20.394 71.207c-3.252-6.349-4.989-13.438-4.989-20.647V14.783c2.623 0.469 5.293 0.705 7.983 0.705 3.018 0 6.032-0.3 8.96-0.89C38.686 13.323 44.752 10.65 50 6.833c4.646 3.379 9.931 5.859 15.477 7.269L20.394 71.207zM84.596 50.56c0 10.413-3.623 20.577-10.201 28.62C68.146 86.82 59.519 92.244 50 94.542c-5.657-1.366-10.995-3.844-15.71-7.227l50.306-63.722V50.56z" data-fill-palette-color="accent"></path></g></svg></g></svg></g></svg></g></svg></g></svg></g><defs></defs></svg><rect width="395.52" height="60.830017212352416" fill="none" stroke="none" visibility="hidden"></rect></g></svg></g></svg>